<svg width="20" height="20" viewBox="0 0 20 20" fill="none" xmlns="http://www.w3.org/2000/svg">
<path d="M11.6667 20C11.4864 20 11.3109 19.9415 11.1667 19.8333L7.83333 17.3333C7.72983 17.2557 7.64583 17.1551 7.58797 17.0393C7.53012 16.9236 7.5 16.796 7.5 16.6667V11.9833L1.65333 5.40583C1.2381 4.9374 0.966979 4.35901 0.872563 3.7402C0.778147 3.12138 0.86445 2.48846 1.1211 1.91751C1.37775 1.34656 1.79382 0.861882 2.31931 0.521721C2.8448 0.181561 3.45735 0.000395349 4.08333 0L15.9167 0C16.5426 0.000734209 17.155 0.182199 17.6803 0.522589C18.2055 0.862978 18.6214 1.34781 18.8777 1.91882C19.1341 2.48983 19.2201 3.12273 19.1255 3.74146C19.0308 4.36018 18.7595 4.93841 18.3442 5.40667L12.5 11.9833V19.1667C12.5 19.3877 12.4122 19.5996 12.2559 19.7559C12.0996 19.9122 11.8877 20 11.6667 20ZM9.16666 16.25L10.8333 17.5V11.6667C10.8335 11.4626 10.9085 11.2657 11.0442 11.1133L17.1008 4.29917C17.3028 4.0709 17.4346 3.7892 17.4804 3.48788C17.5262 3.18655 17.484 2.87842 17.359 2.60046C17.2339 2.32251 17.0313 2.08655 16.7755 1.92091C16.5197 1.75527 16.2214 1.66699 15.9167 1.66667H4.08333C3.77871 1.66713 3.48068 1.75546 3.225 1.92105C2.96932 2.08665 2.76684 2.3225 2.64184 2.60029C2.51684 2.87809 2.47463 3.18605 2.52027 3.48723C2.56591 3.78842 2.69747 4.07004 2.89916 4.29833L8.95666 11.1133C9.09201 11.2659 9.16673 11.4627 9.16666 11.6667V16.25Z" fill="#7C818D"/>
</svg>
